<?xml version="1.0" standalone="no"?>
<!DOCTYPE svg PUBLIC "-//W3C//DTD SVG 20010904//EN"
 "http://www.w3.org/TR/2001/REC-SVG-20010904/DTD/svg10.dtd">
<svg version="1.0" xmlns="http://www.w3.org/2000/svg"
 width="88.000000pt" height="88.000000pt" viewBox="0 0 88.000000 88.000000"
 preserveAspectRatio="xMidYMid meet">
<metadata>
Created by potrace 1.14, written by Peter Selinger 2001-2017
</metadata>
<g transform="translate(0.000000,88.000000) scale(0.100000,-0.100000)"
fill="#000000" stroke="none">
<path d="M240 806 l0 -56 -42 0 c-24 0 -48 -4 -54 -8 -18 -12 -34 -49 -34 -81
0 -29 -2 -30 -50 -33 -66 -4 -65 -22 2 -28 38 -4 53 -9 53 -20 0 -11 -15 -16
-53 -20 -69 -7 -72 -24 -4 -28 43 -3 52 -6 52 -22 0 -16 -9 -19 -53 -22 -67
-4 -67 -22 0 -26 44 -3 53 -6 53 -22 0 -16 -9 -19 -53 -22 -28 -2 -52 -7 -52
-13 0 -5 24 -11 52 -13 44 -3 53 -6 53 -22 0 -16 -9 -19 -53 -22 -66 -4 -64
-22 3 -26 36 -2 50 -7 50 -18 0 -10 -13 -14 -49 -14 -33 0 -51 -5 -54 -14 -8
-21 2 -26 53 -26 l47 0 6 -42 c7 -53 35 -78 88 -78 l39 0 0 -55 c0 -30 4 -55
9 -55 13 0 21 27 21 71 0 27 4 39 14 39 11 0 16 -15 18 -53 2 -38 7 -52 18
-52 11 0 16 14 18 53 3 44 6 52 23 52 16 0 19 -7 19 -55 0 -30 4 -55 10 -55
13 0 23 44 18 80 -4 26 -1 30 19 30 21 0 23 -4 23 -56 0 -73 24 -70 28 4 3 44
6 52 23 52 17 0 19 -7 19 -56 0 -73 24 -70 28 4 3 44 6 52 23 52 16 0 19 -7
19 -55 0 -30 5 -55 10 -55 6 0 10 25 10 55 l0 55 39 0 c56 0 91 31 91 80 l0
39 53 3 c38 2 52 7 52 18 0 11 -14 16 -52 18 -37 2 -53 7 -53 17 0 10 16 15
52 17 74 4 77 28 4 28 -49 0 -56 2 -56 19 0 17 8 20 52 23 74 4 77 28 4 28
-49 0 -56 2 -56 19 0 17 8 20 52 23 74 4 77 28 4 28 -49 0 -56 2 -56 19 0 17
8 20 52 23 74 4 77 28 4 28 -49 0 -56 2 -56 20 0 18 7 20 55 20 42 0 55 3 55
15 0 12 -13 15 -55 15 l-55 0 0 40 c0 55 -26 80 -85 80 l-45 0 0 55 c0 30 -4
55 -10 55 -5 0 -10 -25 -10 -55 0 -48 -3 -55 -19 -55 -17 0 -20 8 -23 52 -4
74 -28 77 -28 4 0 -49 -2 -56 -19 -56 -17 0 -20 8 -23 52 -4 74 -28 77 -28 4
0 -49 -2 -56 -19 -56 -17 0 -20 8 -23 52 -4 74 -28 77 -28 4 0 -49 -2 -56 -19
-56 -17 0 -20 8 -23 53 -2 38 -7 52 -18 52 -11 0 -16 -14 -18 -52 -2 -37 -7
-53 -17 -53 -10 0 -15 16 -17 52 -4 74 -28 77 -28 4z m464 -102 c3 -9 6 -130
6 -269 0 -241 -1 -255 -19 -265 -26 -14 -506 -14 -532 0 -18 10 -19 24 -19
268 0 187 3 261 12 270 9 9 85 12 279 12 234 0 268 -2 273 -16z"/>
<path d="M222 638 c-8 -8 -12 -67 -12 -200 0 -175 1 -188 19 -198 29 -15 384
-13 399 2 17 17 17 379 0 396 -17 17 -389 17 -406 0z"/>
</g>
</svg>
