<?xml version="1.0" encoding="UTF-8" standalone="no"?>
<!-- Created with Inkscape (http://www.inkscape.org/) -->

<svg
   version="1.1"
   id="svg5448"
   width="135.98465mm"
   height="43.081825mm"
   viewBox="0 0 513.95773 162.82895"
   sodipodi:docname="logo_A.svg"
   inkscape:version="1.2.2 (732a01da63, 2022-12-09)"
   xml:space="preserve"
   xmlns:inkscape="http://www.inkscape.org/namespaces/inkscape"
   xmlns:sodipodi="http://sodipodi.sourceforge.net/DTD/sodipodi-0.dtd"
   xmlns="http://www.w3.org/2000/svg"
   xmlns:svg="http://www.w3.org/2000/svg"><defs
     id="defs5452"><inkscape:path-effect
       effect="bspline"
       id="path-effect7723"
       is_visible="true"
       lpeversion="1"
       weight="33.333333"
       steps="2"
       helper_size="0"
       apply_no_weight="true"
       apply_with_weight="true"
       only_selected="false" /><inkscape:path-effect
       effect="bspline"
       id="path-effect6688"
       is_visible="true"
       lpeversion="1"
       weight="33.333333"
       steps="2"
       helper_size="0"
       apply_no_weight="true"
       apply_with_weight="true"
       only_selected="false" /><inkscape:path-effect
       effect="bspline"
       id="path-effect6684"
       is_visible="true"
       lpeversion="1"
       weight="33.333333"
       steps="2"
       helper_size="0"
       apply_no_weight="true"
       apply_with_weight="true"
       only_selected="false" /><clipPath
       clipPathUnits="userSpaceOnUse"
       id="clipPath5462"><rect
         style="opacity:0.5;fill:none;stroke:#000000;stroke-width:10.9719"
         id="rect5464"
         width="203.35883"
         height="185.1718"
         x="351.85953"
         y="153.16631" /></clipPath></defs><sodipodi:namedview
     id="namedview5450"
     pagecolor="#ffffff"
     bordercolor="#000000"
     borderopacity="0.25"
     inkscape:showpageshadow="2"
     inkscape:pageopacity="0.0"
     inkscape:pagecheckerboard="0"
     inkscape:deskcolor="#d1d1d1"
     showgrid="true"
     showguides="false"
     inkscape:zoom="1.099685"
     inkscape:cx="196.41988"
     inkscape:cy="154.58972"
     inkscape:window-width="1920"
     inkscape:window-height="1017"
     inkscape:window-x="1912"
     inkscape:window-y="-8"
     inkscape:window-maximized="1"
     inkscape:current-layer="g5454"
     inkscape:document-units="mm" /><g
     inkscape:groupmode="layer"
     inkscape:label="Image"
     id="g5454"
     transform="translate(-442.61695,-125.53819)"><path
       style="opacity:1;fill:#000000;stroke:#000000;stroke-width:2.97588;stroke-dasharray:none"
       d="m 480.79764,158.39702 -2.5302,95.1895 46.17599,-0.3216 3.16274,-32.80178 18.97644,32.15862 h 46.80854 l -3.47902,-95.83267 z"
       id="path6678" /><path
       style="opacity:1;fill:#ffffff;stroke:#000000;stroke-width:2;stroke-dasharray:none"
       d="m 492.81055,180.31885 c -0.92198,12.48919 -1.464,37.5712 -1.62637,50.05936 -0.16237,12.48817 0.0544,12.38366 2.65645,12.38378 2.60203,1.1e-4 7.58848,0.10462 9.91921,0.0527 2.33073,-0.0519 2.00552,-0.26091 2.27593,-7.31528 0.27041,-7.05437 1.13762,-20.95371 1.46346,-27.95594 0.32583,-7.00223 0.10903,-7.10673 -0.75872,-6.58453 -0.86776,0.5222 -2.38537,1.67176 -3.73996,1.77676 -1.35459,0.105 -2.54701,-0.83556 -3.36043,-2.14178 -0.81343,-1.30623 -1.24704,-2.97833 -1.19307,-4.59853 0.054,-1.6202 0.59596,-3.18778 1.78869,-4.49453 1.19272,-1.30674 3.03553,-2.3518 6.66712,-4.28524 3.63159,-1.93344 9.05164,-4.75511 13.0086,-6.37496 3.95696,-1.61985 6.45019,-2.03788 8.67265,-2.03768 2.22246,2e-4 4.17368,0.41823 6.45018,0.99307 2.27651,0.57485 4.87814,1.3064 6.61225,2.71771 1.73411,1.4113 2.60132,3.50143 3.25163,5.48709 0.6503,1.98566 1.0839,3.86676 1.13789,5.48643 0.054,1.61967 -0.27122,2.97826 -1.24674,4.38875 -0.97553,1.4105 -2.60155,2.87359 -4.28167,4.07538 -1.68012,1.20179 -3.41453,2.14234 -5.58237,2.76944 -2.16784,0.6271 -4.76946,0.94062 -6.23345,1.51573 -1.46398,0.57512 -1.78918,1.41116 -0.75863,2.19491 1.03055,0.78376 3.41538,1.5153 5.74601,2.82193 2.33063,1.30664 4.60706,3.18776 7.31718,5.33018 2.71013,2.14242 5.85377,4.54607 8.45532,7.15894 2.60155,2.61287 4.66117,5.43454 5.79907,7.57697 1.13791,2.14243 1.35472,3.60552 4.55309,4.28426 3.19837,0.67875 9.37723,0.57424 12.90036,0.522 3.52312,-0.0522 4.39033,-0.0522 4.71554,-0.15628 0.3252,-0.10402 0.1084,-0.31303 -0.16311,-11.5479 -0.27151,-11.23486 -0.59671,-33.49471 -0.70521,-44.72967 -0.10851,-11.23497 -1e-4,-11.44398 -0.10791,-11.54867 -0.1078,-0.10469 -0.43301,-0.10469 -12.73702,-0.15694 -12.30401,-0.0523 -36.58586,-0.15676 -49.8111,-0.15678 -13.22525,-3e-5 -15.39327,0.10448 -17.12767,0.10454 -1.73441,7e-5 -3.03522,-0.10444 -3.9572,12.38475 z"
       id="path6682"
       inkscape:original-d="m 492.4306,167.72507 c -0.541,25.08299 -1.08302,50.165 -1.62604,75.24603 0.21782,-0.10354 0.43462,-0.20804 0.65042,-0.31353 4.98766,0.10549 9.97411,0.21 14.95964,0.31353 -0.3242,-0.20805 -0.64941,-0.41706 -0.97562,-0.62705 0.86825,-13.89891 1.73546,-27.79825 2.60167,-41.69885 -0.2158,-0.10353 -0.4326,-0.20803 -0.65041,-0.31352 -1.51667,1.15059 -3.03428,2.30016 -4.55294,3.44878 -1.19145,-0.93962 -2.38386,-1.88018 -3.57731,-2.82173 -0.43261,-1.67119 -0.86622,-3.34329 -1.30084,-5.0164 0.54304,-1.56669 1.08504,-3.13427 1.62605,-4.70288 1.84391,-1.04413 3.68672,-2.08919 5.52856,-3.13525 5.42129,-2.8208 10.84134,-5.64247 16.2605,-8.46518 2.49433,-0.41706 4.98756,-0.83509 7.47982,-1.2541 1.95231,0.41902 3.90353,0.83705 5.85377,1.2541 2.60275,0.73255 5.20438,1.46409 7.80504,2.19468 0.86825,2.09118 1.73546,4.18131 2.60168,6.2705 0.43463,1.88217 0.86824,3.76327 1.30083,5.64345 -0.3242,1.35961 -0.6494,2.7182 -0.97562,4.07583 -1.62507,1.46412 -3.25109,2.92721 -4.87815,4.38935 -1.73348,0.94158 -3.46789,1.88213 -5.20335,2.82173 -2.60073,0.3145 -5.20235,0.62802 -7.80504,0.94057 -0.3242,0.83707 -0.64941,1.67311 -0.97562,2.50821 2.38592,0.73254 4.77075,1.46409 7.15461,2.19467 2.27752,1.88216 4.55395,3.76328 6.8294,5.64345 3.14477,2.40472 6.28841,4.80837 9.43109,7.21108 2.06071,2.82276 4.12033,5.64443 6.17898,8.46518 0.21782,1.46412 0.43462,2.92721 0.65042,4.38936 6.18012,-0.10354 12.35898,-0.20805 18.53696,-0.31353 0.86825,9.7e-4 1.73546,9.7e-4 2.60167,0 -0.2158,-0.20805 -0.4326,-0.41706 -0.65041,-0.62706 -0.3242,-22.25974 -0.64941,-44.51959 -0.97564,-66.78085 0.10942,-0.20804 0.21783,-0.41705 0.32522,-0.62705 -0.3242,9.7e-4 -0.64941,9.7e-4 -0.97564,0 -24.28179,-0.10354 -48.56364,-0.20805 -72.84698,-0.31352 -2.1671,0.10548 -4.33512,0.20998 -6.5042,0.31352 -1.29985,-0.10354 -2.60066,-0.20805 -3.90252,-0.31352 z"
       inkscape:path-effect="#path-effect6684" /><path
       style="opacity:1;fill:#ececec;stroke:#000000;stroke-width:3;stroke-dasharray:none"
       d="m 519.80776,192.00652 c -1.01831,2.09038 -1.01831,5.30543 -0.96481,6.69846 0.0535,1.39304 0.16066,0.96437 2.19737,0.37451 2.03671,-0.58986 6.00185,-1.34002 9.00217,-2.78672 3.00033,-1.4467 5.03648,-3.59003 5.57288,-5.03638 0.5364,-1.44636 -0.4281,-2.19653 -2.46436,-2.62561 -2.03626,-0.42909 -5.14408,-0.53625 -7.71643,-0.10769 -2.57236,0.42856 -4.60851,1.39305 -5.62682,3.48343 z"
       id="path6686"
       inkscape:original-d="m 518.78945,190.88086 c 10e-4,3.21604 10e-4,6.43109 0,9.64513 0.10817,-0.42768 0.21533,-0.85635 0.3215,-1.28602 3.9663,-0.74919 7.93144,-1.49935 11.89566,-2.25053 2.03723,-2.1424 4.07339,-4.28572 6.10858,-6.43008 -0.96353,-0.74919 -1.92803,-1.49936 -2.89354,-2.25053 -3.10693,-0.10617 -6.21475,-0.21334 -9.32362,-0.32151 -2.03524,0.96554 -4.07139,1.93003 -6.10858,2.89354 z"
       inkscape:path-effect="#path-effect6688" /><rect
       style="opacity:1;fill:#0168b5;fill-opacity:1;stroke:#00285a;stroke-width:2;stroke-dasharray:none;stroke-opacity:1"
       id="rect6745-1-69"
       width="23.86133"
       height="12.299858"
       x="123.99881"
       y="-513.60175"
       transform="matrix(-0.00405218,0.99999179,-0.99998576,-0.00533656,0,0)"
       ry="5.5101032" /><rect
       style="opacity:1;fill:#0168b5;fill-opacity:1;stroke:#00285a;stroke-width:2;stroke-dasharray:none;stroke-opacity:1"
       id="rect6745-1-69-3"
       width="23.86133"
       height="12.299858"
       x="260.7919"
       y="-515.12061"
       transform="matrix(-0.00405218,0.99999179,-0.99998576,-0.00533656,0,0)"
       ry="6.149929" /><rect
       style="opacity:1;fill:#0168b5;fill-opacity:1;stroke:#00285a;stroke-width:2;stroke-dasharray:none;stroke-opacity:1"
       id="rect6745-1-69-3-0"
       width="23.86133"
       height="12.299858"
       x="-471.15457"
       y="-175.2446"
       transform="matrix(-0.99991321,-0.01317475,0.01445902,-0.99989546,0,0)"
       ry="6.149929" /><rect
       style="opacity:1;fill:#0168b5;fill-opacity:1;stroke:#00285a;stroke-width:2;stroke-dasharray:none;stroke-opacity:1"
       id="rect6745-1-69-3-0-6"
       width="23.86133"
       height="12.299858"
       x="-628.92242"
       y="-168.02122"
       transform="matrix(-0.99991321,-0.01317475,0.01445902,-0.99989546,0,0)"
       ry="6.149929" /><rect
       style="opacity:1;fill:#0168b5;fill-opacity:1;stroke:#00285a;stroke-width:2;stroke-dasharray:none;stroke-opacity:1"
       id="rect6745-1-69-3-0-6-7"
       width="23.86133"
       height="12.299858"
       x="-629.3454"
       y="-197.2756"
       transform="matrix(-0.99991321,-0.01317475,0.01445902,-0.99989546,0,0)"
       ry="6.149929" /><rect
       style="opacity:1;fill:#0168b5;fill-opacity:1;stroke:#00285a;stroke-width:2;stroke-dasharray:none;stroke-opacity:1"
       id="rect6745-1-69-3-0-6-7-4"
       width="23.86133"
       height="12.299858"
       x="-628.48724"
       y="-226.86838"
       transform="matrix(-0.99991321,-0.01317475,0.01445902,-0.99989546,0,0)"
       ry="6.149929" /><rect
       style="opacity:1;fill:#0168b5;fill-opacity:1;stroke:#00285a;stroke-width:2;stroke-dasharray:none;stroke-opacity:1"
       id="rect6745-1-69-3-0-4"
       width="23.86133"
       height="12.299858"
       x="-471.58231"
       y="-204.82045"
       transform="matrix(-0.99991321,-0.01317475,0.01445902,-0.99989546,0,0)"
       ry="6.149929" /><rect
       style="fill:#0168b5;fill-opacity:1;stroke:#00285a;stroke-width:2;stroke-dasharray:none;stroke-opacity:1"
       id="rect6745-1-69-3-0-4-9"
       width="23.86133"
       height="12.299858"
       x="-470.76706"
       y="-230.87576"
       transform="matrix(-0.99991321,-0.01317475,0.01445902,-0.99989546,0,0)"
       ry="6.149929" /><rect
       style="opacity:1;fill:#0168b5;fill-opacity:1;stroke:#00285a;stroke-width:2;stroke-dasharray:none;stroke-opacity:1"
       id="rect6745-1-69-3-4"
       width="23.86133"
       height="12.299858"
       x="260.30914"
       y="-545.34045"
       transform="matrix(-0.00405218,0.99999179,-0.99998576,-0.00533656,0,0)"
       ry="6.149929" /><rect
       style="opacity:1;fill:#0168b5;fill-opacity:1;stroke:#00285a;stroke-width:2;stroke-dasharray:none;stroke-opacity:1"
       id="rect6745-1-69-3-4-2"
       width="23.86133"
       height="12.299858"
       x="260.47278"
       y="-574.91998"
       transform="matrix(-0.00405218,0.99999179,-0.99998576,-0.00533656,0,0)"
       ry="6.149929" /><rect
       style="opacity:1;fill:#0168b5;fill-opacity:1;stroke:#00285a;stroke-width:2;stroke-dasharray:none;stroke-opacity:1"
       id="rect6745-1-69-2"
       width="23.86133"
       height="12.299858"
       x="123.66994"
       y="-545.10828"
       transform="matrix(-0.00405218,0.99999179,-0.99998576,-0.00533656,0,0)"
       ry="4.8688197" /><rect
       style="opacity:1;fill:#0168b5;fill-opacity:1;stroke:#00285a;stroke-width:2;stroke-dasharray:none;stroke-opacity:1"
       id="rect6745-1-69-2-0"
       width="23.86133"
       height="12.299858"
       x="123.83359"
       y="-574.68781"
       transform="matrix(-0.00405218,0.99999179,-0.99998576,-0.00533656,0,0)"
       ry="4.5576143" /><path
       style="opacity:1;fill:#0168b5;fill-opacity:1;stroke:#00285a;stroke-width:2;stroke-dasharray:none;stroke-opacity:1"
       d="m 551.52948,179.6286 c -0.37529,2.57263 -0.48246,7.39519 -0.48195,9.80598 5.1e-4,2.41079 0.10768,2.41079 1.60798,2.19639 1.50029,-0.2144 4.39377,-0.64306 6.376,-1.33963 1.98223,-0.69656 3.0539,-1.66106 3.80396,-2.94672 0.75006,-1.28567 1.17872,-2.89316 1.23253,-4.39328 0.0538,-1.50013 -0.26769,-2.89328 -1.01745,-4.01873 -0.74976,-1.12545 -1.92858,-1.98278 -3.05392,-2.41186 -1.12534,-0.42908 -2.197,-0.42908 -3.32232,-0.37554 -1.12533,0.0536 -2.30416,0.16071 -3.21534,0.37499 -0.91119,0.21428 -1.55419,0.53578 -1.92949,3.1084 z"
       id="path7721"
       inkscape:original-d="m 551.26138,177.37768 c -0.10617,4.82357 -0.21334,9.64613 -0.32151,14.46769 0.10817,0.001 0.21534,0.001 0.32151,0 2.89459,-0.42768 5.78807,-0.85634 8.68061,-1.28601 1.0727,-0.96353 2.14436,-1.92803 3.21504,-2.89354 0.42968,-1.60655 0.85835,-3.21404 1.28602,-4.82256 -0.32051,-1.39222 -0.64201,-2.78537 -0.96451,-4.17956 -1.17788,-0.85636 -2.3567,-1.71369 -3.53655,-2.57203 -1.0707,0.001 -2.14236,0.001 -3.21504,0 -1.17787,0.10817 -2.3567,0.21533 -3.53655,0.3215 -0.64202,0.32251 -1.28502,0.64401 -1.92902,0.96451 z"
       inkscape:path-effect="#path-effect7723" /><path
       style="opacity:1;fill:#0168b5;fill-opacity:1;stroke:#00285a;stroke-width:2;stroke-dasharray:none;stroke-opacity:1"
       d="m 41.74474,133.2713 c 0.216693,-5.2207 0.848621,-26.99807 1.404284,-48.394181 0.555663,-21.396107 1.130827,-39.023909 1.278142,-39.172894 0.375057,-0.379309 110.440604,-1.969756 110.809164,-1.601193 0.16532,0.165314 0.93988,18.160064 1.72126,39.988335 0.78138,21.828273 1.60278,43.811053 1.82535,48.850633 l 0.40467,9.16287 H 134.8857 110.58379 l -2.95946,-4.98331 c -1.62769,-2.74083 -5.49122,-9.26685 -8.585609,-14.50228 -3.094385,-5.23543 -5.769508,-9.3756 -5.944717,-9.2004 -0.175209,0.17522 -0.940135,6.77358 -1.699834,14.66303 l -1.381273,14.34447 -24.331072,0.16854 -24.331071,0.16855 z m 27.392639,-5.47337 c 0.0077,-1.14937 0.435427,-9.4683 0.950545,-18.48649 0.515118,-9.01819 0.942863,-16.771519 0.950545,-17.229613 0.01006,-0.599845 -0.596806,-0.718315 -2.168855,-0.423397 -1.219183,0.22872 -2.777507,0.09123 -3.529891,-0.311429 -3.021287,-1.616944 -4.230617,-7.285677 -2.335919,-10.949619 1.632694,-3.157281 17.909171,-11.869644 25.949291,-13.889961 3.76407,-0.945833 4.45294,-0.940899 9.002118,0.06447 2.709377,0.598773 5.504847,1.380833 6.212157,1.737914 2.6052,1.315213 4.85203,4.032854 6.10673,7.386338 1.65819,4.43191 1.64747,8.125829 -0.0314,10.842393 -1.94312,3.144003 -8.06968,6.974166 -12.741414,7.965575 -2.168932,0.460278 -3.943513,1.016041 -3.943513,1.235026 0,0.218986 1.454222,1.065294 3.231604,1.880684 3.873963,1.777215 14.442933,10.110529 19.041933,15.013999 1.81763,1.93796 3.91639,4.72242 4.66391,6.18768 0.74752,1.46525 1.86455,2.92803 2.48229,3.2506 1.66603,0.86997 11.76623,1.55574 15.24032,1.03477 2.6616,-0.39913 2.98266,-0.61592 2.69471,-1.81945 -0.1798,-0.75149 -0.5333,-15.47234 -0.78557,-32.713002 L 139.66828,57.227754 H 99.963583 c -35.592677,0 -39.745075,0.105213 -40.094542,1.01591 -1.32797,3.460635 -2.943921,36.030847 -2.956403,59.587636 l -0.0064,12.05641 h 6.108581 6.10858 l 0.01397,-2.08978 z M 92.142562,84.097944 c 4.354675,-1.617823 6.926536,-3.766284 6.339568,-5.295899 -0.376927,-0.982256 -1.129552,-1.102119 -5.635454,-0.897495 -4.75413,0.215897 -5.333046,0.390342 -6.745745,2.032702 -0.999486,1.161971 -1.545317,2.596842 -1.545317,4.062301 0,2.220033 0.04218,2.256666 2.089778,1.815024 1.149378,-0.247907 3.623104,-1.020392 5.49717,-1.716633 z"
       id="path24425"
       transform="translate(435.51985,111.79082)" /><text
       xml:space="preserve"
       style="white-space:pre;inline-size:60.7859;display:inline;fill:#00285a;stroke:#00285a;stroke-width:2;paint-order:fill markers stroke"
       x="646.1051"
       y="202.13351"
       id="text2500" /><text
       xml:space="preserve"
       style="font-style:normal;font-variant:normal;font-weight:normal;font-stretch:normal;font-size:12px;font-family:'Century Schoolbook';-inkscape-font-specification:'Century Schoolbook, Normal';font-variant-ligatures:normal;font-variant-caps:normal;font-variant-numeric:normal;font-variant-east-asian:normal;fill:#00285a;stroke:#00285a;stroke-width:2;paint-order:fill markers stroke"
       x="631.95892"
       y="243.60756"
       id="text2554"><tspan
         sodipodi:role="line"
         id="tspan2552"
         x="631.95892"
         y="243.60756" /></text><text
       xml:space="preserve"
       style="font-style:normal;font-variant:normal;font-weight:normal;font-stretch:normal;font-size:91.3865px;font-family:sans-serif;-inkscape-font-specification:'sans-serif, Normal';font-variant-ligatures:normal;font-variant-caps:normal;font-variant-numeric:normal;font-variant-east-asian:normal;letter-spacing:15px;word-spacing:0px;fill:#0168b5;fill-opacity:1;stroke:#00285a;stroke-width:15.2311;paint-order:fill markers stroke"
       x="684.82104"
       y="225.19655"
       id="text2558"
       transform="scale(0.94988296,1.0527613)"><tspan
         sodipodi:role="line"
         id="tspan2556"
         x="684.82104"
         y="225.19655"
         style="font-style:normal;font-variant:normal;font-weight:normal;font-stretch:normal;font-size:91.3865px;font-family:sans-serif;-inkscape-font-specification:'sans-serif, Normal';font-variant-ligatures:normal;font-variant-caps:normal;font-variant-numeric:normal;font-variant-east-asian:normal;fill:#0168b5;fill-opacity:1;stroke-width:15.2311">ROHD</tspan></text></g></svg>
